# xmcd
#
# Track frame offsets:
#	150
#	99435
#	119805
#	157775
#	172365
#	193345
#
# Disc length: 3365 seconds
#
# Revision: 1
# Processed by: cddbd v1.4PL0 Copyright (c) Steve Scherf et al.
# Submitted via: audiograbber 1.82.01
#
DISCID=530d2306
DTITLE=Hany Shaker - Best Songs (1)
DYEAR=1900
DGENRE=Ethnic
TTITLE0=Howwa Elli Ikhtar
TTITLE1=Ya Hawa
TTITLE2=Ma Teb3edich
TTITLE3=Ghoraba2
TTITLE4=Bahebak
TTITLE5=Anhou Jirah
EXTD=
EXTT0=
EXTT1=
EXTT2=
EXTT3=
EXTT4=
EXTT5=
PLAYORDER=
